:SAMPLES-PER-SECOND 30
:FULLY-SPECIFIED
:DEGREES
123
root  0.6887044494 38.77133347 5.79193333 6.572006226 -16.7749939 1.050994873
lowerback  12.87549973 1.718530059 -2.521909952
upperback  3.225670099 1.818420053 -2.059649944
thorax  -3.835560083 0.9014840126 -1.01888001
lowerneck  -5.978109837 7.125229836 -6.083449841
upperneck  20.65570068 10.38939953 0.7773900032
head  6.951000214 4.55354023 2.011159897
lclavicle  0 -9.442270133e-015 7.951389973e-016
lhumerus  -6.052770138 0.9855700135 68.72000122
lradius  2.741793433e-031 -2.225177029e-031 140.9380035
lwrist  -1.412450015e-030 -0 18.22509956
lhand  -1.496451383e-031 -27.76390076 20.11240005
lfingers  90 7.125020027 -90
lthumb  89.89689403 5.08795885 91.16245106
rclavicle  0 -9.442270133e-015 7.951389973e-016
rhumerus  -18.38209915 9.735199928 -71.4253006
rradius  -1.40017266e-031 3.241660155e-031 113.3610001
rwrist  7.062250077e-031 -0 -5.750529766
rhand  -7.920061211e-032 -33.2840004 9.303460121
rfingers  -90 -7.125020027 -90
rthumb  -92.93752616 -24.25625642 -97.11982154
rfemur  -16.48819923 14.65190029 7.26899004
rtibia  -0 0 50.98270035
rfoot  -0 -28.00709915 -18.50569916
rtoes  5.373923086 19.29304026 -105.8922705
lfemur  -27.46279907 -4.597770214 -11.76690006
ltibia  -0 0 53.66699982
lfoot  -0 -19.40530014 -10.7116003
ltoes  -4.250644065 -19.5611806 -102.515957
124
root  0.7264155572 38.86066647 5.656177791 6.319000244 -16.66600037 1.447006226
lowerback  13.56000042 1.64072001 -2.865319967
upperback  3.413520098 1.650820017 -1.891160011
thorax  -4.025589943 0.8200420141 -0.6391360164
lowerneck  -6.147109985 6.61868 -6.87127018
upperneck  19.65320015 9.7396698 0.9609130025
head  6.631159782 4.240119934 2.12612009
lclavicle  0 -9.442270133e-015 7.951389973e-016
lhumerus  -5.85311985 0.7087640166 70.03469849
lradius  2.73798315e-031 -2.229863741e-031 140.8399963
lwrist  0 -1.765562519e-031 18.24559975
lhand  -1.496451383e-031 -27.76390076 20.11240005
lfingers  90 7.125020027 -90
lthumb  89.89689403 5.08795885 91.16245106
rclavicle  0 -9.442270133e-015 7.951389973e-016
rhumerus  -19.06669998 9.527629852 -71.23680115
rradius  -1.466800739e-031 3.212061586e-031 114.5439987
rwrist  7.062250077e-031 -1.765562519e-031 -5.657879829
rhand  -7.920061211e-032 -33.2840004 9.303460121
rfingers  -90 -7.125020027 -90
rthumb  -92.93752616 -24.25625642 -97.11982154
rfemur  -17.58779907 14.53460026 6.518330097
rtibia  -0 0 52.5481987
rfoot  -0 -26.15369987 -17.16749954
rtoes  5.373923086 19.29304026 -105.8922705
lfemur  -27.28590012 -5.341519833 -12.29990005
ltibia  -0 0 53.12149811
lfoot  -0 -19.60149956 -9.209699631
ltoes  -4.250644065 -19.5611806 -102.515957
125
root  0.7495488707 38.97488812 5.523466501 6.160995483 -16.5 1.744003296
lowerback  14.13949966 1.601639986 -3.131069899
upperback  3.612090111 1.545480013 -1.756530046
thorax  -4.140920162 0.7684460282 -0.3429259956
lowerneck  -6.230800152 6.048240185 -7.504179955
upperneck  18.65620041 8.983920097 1.136510015
head  6.319610119 3.887089968 2.207920074
lclavicle  0 -9.442270133e-015 7.951389973e-016
lhumerus  -5.657999992 0.3181630075 71.42430115
lradius  2.732526421e-031 -2.236547204e-031 140.6999969
lwrist  -7.062250077e-031 -2.648343779e-031 18.66889954
lhand  -1.496451383e-031 -27.76390076 20.11240005
lfingers  90 7.125020027 -90
lthumb  89.89689403 5.08795885 91.16245106
rclavicle  0 -9.442270133e-015 7.951389973e-016
rhumerus  -19.97369957 9.160510063 -71.19259644
rradius  -1.521133995e-031 3.186690353e-031 115.5169983
rwrist  7.062250077e-031 -0 -5.560760021
rhand  -7.920061211e-032 -33.2840004 9.303460121
rfingers  -90 -7.125020027 -90
rthumb  -92.93752616 -24.25625642 -97.11982154
rfemur  -18.99290085 14.29109955 5.814129829
rtibia  -0 0 54.34230042
rfoot  -0 -23.40929985 -16.33069992
rtoes  5.373923086 19.29304026 -105.8922705
lfemur  -27.15270042 -6.071529865 -12.65320015
ltibia  -0 0 52.45249939
lfoot  -0 -19.56839943 -7.380320072
ltoes  -4.250644065 -19.5611806 -102.515957
126
root  0.7586066648 39.1157766 5.38633339 6.123001099 -16.14599609 1.886993408
lowerback  14.58199978 1.608729959 -3.116090059
upperback  3.782710075 1.538730025 -1.771139979
thorax  -4.200069904 0.7634469867 -0.374296993
lowerneck  -6.043729782 5.424429893 -7.536570072
upperneck  17.72290039 8.061389923 1.327900052
head  6.018939972 3.491940022 2.186350107
lclavicle  0 -9.442270133e-015 7.951389973e-016
lhumerus  -5.383130074 -0.7466030121 72.66339874
lradius  2.718734984e-031 -2.253291842e-031 140.3480072
lwrist  0 1.765562519e-031 18.63710022
lhand  -1.496451383e-031 -27.76390076 20.11240005
lfingers  90 7.125020027 -90
lthumb  89.89689403 5.08795885 91.16245106
rclavicle  0 -9.442270133e-015 7.951389973e-016
rhumerus  -21.29299927 8.421150208 -71.41670227
rradius  -1.560726531e-031 3.167487448e-031 116.2310028
rwrist  0 -1.765562519e-031 -5.474559784
rhand  -7.920061211e-032 -33.2840004 9.303460121
rfingers  -90 -7.125020027 -90
rthumb  -92.93752616 -24.25625642 -97.11982154
rfemur  -20.63159943 13.82769966 5.286459923
rtibia  -0 0 56.26490021
rfoot  -0 -20.1189003 -15.6182003
rtoes  5.373923086 19.29304026 -105.8922705
lfemur  -27.06620026 -6.899889946 -12.69719982
ltibia  -0 0 51.58319855
lfoot  9.340097873e-032 -19.06439972 -7.009570122
ltoes  -4.250644065 -19.5611806 -102.515957
127
root  0.7504311134 39.28577693 5.24557782 5.977996826 -15.72099304 2.072998047
lowerback  14.99330044 1.631520033 -3.275700092
upperback  4.060919762 1.531530023 -1.768370032
thorax  -4.132530212 0.7571610212 -0.2861559987
lowerneck  -5.903319836 4.79723978 -7.417880058
upperneck  16.89209938 7.128799915 1.534870028
head  5.767889977 3.09394002 2.153789997
lclavicle  0 -9.442270133e-015 7.951389973e-016
lhumerus  -5.006309986 -2.061909914 73.91190338
lradius  2.693276605e-031 -2.283660475e-031 139.7050018
lwrist  -7.062250077e-031 -0 17.88660049
lhand  -1.496451383e-031 -27.76390076 20.11240005
lfingers  90 7.125020027 -90
lthumb  89.89689403 5.08795885 91.16245106
rclavicle  0 -9.442270133e-015 7.951389973e-016
rhumerus  -22.54360008 7.697609901 -71.65129852
rradius  -1.582966817e-031 3.156431544e-031 116.6340027
rwrist  7.062250077e-031 -1.765562519e-031 -5.460229874
rhand  -7.920061211e-032 -33.2840004 9.303460121
rfingers  -90 -7.125020027 -90
rthumb  -92.93752616 -24.25625642 -97.11982154
rfemur  -22.27809906 13.33790016 4.787399769
rtibia  -0 0 58.22470093
rfoot  -0 -16.59140015 -14.52960014
rtoes  5.373923086 19.29304026 -105.8922705
lfemur  -26.72999954 -7.708059788 -12.69309998
ltibia  -0 0 50.44990158
lfoot  9.301165252e-032 -18.35779953 -7.165689945
ltoes  -4.250644065 -19.5611806 -102.515957
128
root  0.7174399894 39.47755408 5.117800104 5.67300415 -15.24099731 2.473999023
lowerback  15.42749977 1.683680058 -3.85255003
upperback  4.445730209 1.504019976 -1.679739952
thorax  -3.974560022 0.7394509912 0.1323270053
lowerneck  -5.876410007 4.135990143 -7.551109791
upperneck  16.07690048 6.186470032 1.81427002
head  5.535190105 2.676419973 2.19046998
lclavicle  0 -9.442270133e-015 7.951389973e-016
lhumerus  -4.479100227 -3.160660028 75.26029968
lradius  2.667196173e-031 -2.314067547e-031 139.0549927
lwrist  -7.062250077e-031 8.827812596e-032 17.88299942
lhand  -1.496451383e-031 -27.76390076 20.11240005
lfingers  90 7.125020027 -90
lthumb  89.89689403 5.08795885 91.16245106
rclavicle  0 -9.442270133e-015 7.951389973e-016
rhumerus  -23.53409958 7.170259953 -71.6812973
rradius  -1.584013288e-031 3.155906517e-031 116.6529999
rwrist  7.062250077e-031 -0 -5.712120056
rhand  -7.920061211e-032 -33.2840004 9.303460121
rfingers  -90 -7.125020027 -90
rthumb  -92.93752616 -24.25625642 -97.11982154
rfemur  -23.82349968 12.81939983 4.162749767
rtibia  -0 0 60.19940186
rfoot  -0 -13.04769993 -13.26089954
rtoes  5.373923086 19.29304026 -105.8922705
lfemur  -26.06369972 -8.483449936 -12.86680031
ltibia  -0 0 48.97779846
lfoot  9.257319683e-032 -17.52160072 -6.912069798
ltoes  -4.250644065 -19.5611806 -102.515957
